<svg xmlns="http://www.w3.org/2000/svg" version="1.1" xmlns:xlink="http://www.w3.org/1999/xlink" xmlns:svgjs="http://svgjs.dev/svgjs" width="128" height="128" viewBox="0 0 128 128"><g transform="matrix(0.8046875,0,0,0.8046875,12.221578124999994,20.172783417269677)"><svg viewBox="0 0 96 81" data-background-color="#ffffff" preserveAspectRatio="xMidYMid meet" height="108" width="128" xmlns="http://www.w3.org/2000/svg" xmlns:xlink="http://www.w3.org/1999/xlink"><g id="tight-bounds" transform="matrix(1,0,0,1,0.25950000000000273,0.348667882933114)"><svg viewBox="0 0 95.481 80.30266423413376" height="80.30266423413376" width="95.481"><g><svg viewBox="0 0 95.481 80.30266423413376" height="80.30266423413376" width="95.481"><g><svg viewBox="0 0 95.481 80.30266423413376" height="80.30266423413376" width="95.481"><g id="textblocktransform"><svg viewBox="0 0 95.481 80.30266423413376" height="80.30266423413376" width="95.481" id="textblock"><g><svg viewBox="0 0 95.481 80.30266423413376" height="80.30266423413376" width="95.481"><g><svg viewBox="0 0 95.481 80.30266423413376" height="80.30266423413376" width="95.481"><g><svg xmlns="http://www.w3.org/2000/svg" xmlns:xlink="http://www.w3.org/1999/xlink" version="1.1" x="0" y="0" viewBox="20.957142857142856 36.584046372234795 58.042857142857144 48.81595362776521" style="enable-background:new 0 0 100 100;" xml:space="preserve" height="80.30266423413376" width="95.481" class="icon-icon-0" data-fill-palette-color="accent" id="icon-0"><g fill="#f36527" data-fill-palette-color="accent"><path class="" d="M56.3 85.4H36.1C31.7 85.4 27.7 83 25.7 79.1 25 78.1 24.5 76.9 24.4 75.7L21 47.5C20.8 45.6 21.3 43.7 22.5 42.2S25.4 39.7 27.3 39.5C29.6 39.2 31.9 40.1 33.4 41.7 34.7 39.6 36.9 38.3 39.4 38.3 41.5 38.3 43.5 39.1 44.9 40.6 46.1 38.1 48.8 36.4 51.7 36.6 54.2 36.7 56.4 38.1 57.6 40.1 59.1 38.5 61.3 37.6 63.6 37.9 67.6 38.3 70.4 41.9 70 45.9L69.4 51.7 76.5 58.8C78.1 60.1 79 62.1 79 64.3V64.4C79 64.7 79 65.1 78.9 65.4 78.9 65.6 78.8 65.8 78.8 66S78.7 66.3 78.7 66.4C78.5 67.3 78.1 68.1 77.5 68.8L77.3 69.1C77.2 69.3 77.1 69.4 77 69.5S76.8 69.7 76.7 69.7L64.7 81.7 64.4 82 63.6 82.8C62.2 84.2 60.5 85 58.6 85.1 57.9 85.3 57.1 85.4 56.3 85.4M28.2 42.5H27.7C26.6 42.6 25.6 43.2 24.9 44.1S23.9 46.1 24 47.2L27.4 75.3C27.5 76 27.8 76.8 28.2 77.4L28.3 77.6C29.8 80.5 32.8 82.4 36.1 82.4H56.3C56.9 82.4 57.5 82.3 58.1 82.2H58.3C59.5 82.1 60.6 81.7 61.5 80.8L62.3 80 62.6 79.7 74.7 67.6 74.9 67.4V67.3C74.9 67.2 75 67.2 75.1 67.1L75.2 67C75.5 66.6 75.7 66.1 75.9 65.6 75.9 65.5 76 65.4 76 65.3S76 65.1 76.1 65V64.2C76.1 62.9 75.5 61.8 74.6 61H74.5L66.4 52.9 67.1 45.7C67.4 43.4 65.7 41.3 63.4 41 61.2 40.8 59.1 42.3 58.8 44.5L58.6 45.8 57 45.7 55.6 45.5 55.7 44.1C55.8 41.7 54 39.8 51.7 39.7S47.4 41.4 47.3 43.7L47.2 45.7H44L43.7 44.6C43.2 42.7 41.5 41.4 39.6 41.4H39.5C37.5 41.4 35.8 42.8 35.4 44.8L35.2 45.8 34.2 46C34.1 46 34 46 33.9 46.1L32.5 46.5 32 45.3C31.4 43.5 29.9 42.5 28.2 42.5" fill="#f36527" data-fill-palette-color="accent"></path></g></svg></g></svg></g></svg></g></svg></g></svg></g><g></g></svg></g><defs></defs></svg><rect width="95.481" height="80.30266423413376" fill="none" stroke="none" visibility="hidden"></rect></g></svg></g></svg>