<svg xmlns="http://www.w3.org/2000/svg" version="1.1" xmlns:xlink="http://www.w3.org/1999/xlink" xmlns:svgjs="http://svgjs.dev/svgjs" width="1500" height="984" viewBox="0 0 1500 984"><g transform="matrix(1,0,0,1,-0.08963714234698728,-1.5870967741935829)"><svg viewBox="0 0 378 248" data-background-color="#ffffff" preserveAspectRatio="xMidYMid meet" height="984" width="1500" xmlns="http://www.w3.org/2000/svg" xmlns:xlink="http://www.w3.org/1999/xlink"><g id="tight-bounds" transform="matrix(1,0,0,1,0.022588559871451253,0.4000000000000057)"><svg viewBox="0 0 377.9548228802571 247.2" height="247.2" width="377.9548228802571"><g><svg viewBox="0 0 395.52 258.6884412663682" height="247.2" width="377.9548228802571"><g transform="matrix(1,0,0,1,0,159.87983476817328)"><svg viewBox="0 0 395.52 98.80860649819495" height="98.80860649819495" width="395.52"><g id="textblocktransform"><svg viewBox="0 0 395.52 98.80860649819495" height="98.80860649819495" width="395.52" id="textblock"><g><svg viewBox="0 0 395.52 98.80860649819495" height="98.80860649819495" width="395.52"><g transform="matrix(1,0,0,1,0,0)"><svg width="395.52" viewBox="1.7 -25.23 138.49 34.61" height="98.80860649819495" data-palette-color="#6f605b"><path d="M12.8-7.3L12.8-7.3Q7.83-7.3 5.16-9.47 2.5-11.65 2.5-15.7L2.5-15.7 2.5-16.32Q2.5-18.85 3.54-20.73 4.58-22.6 6.85-23.66 9.13-24.73 12.8-24.83L12.8-24.83 25.25-25.23 25.25-22.03 17.9-22.28 17.88-22.1Q19.6-21.75 20.7-20.9 21.8-20.05 22.34-18.78 22.88-17.5 22.88-15.8L22.88-15.8 22.88-15.25Q22.88-11.38 20.33-9.34 17.78-7.3 12.8-7.3ZM12.63 6.15L12.63 6.15 13.2 6.15Q15.45 6.15 17.06 5.81 18.68 5.48 19.55 4.75 20.43 4.03 20.43 2.83L20.43 2.83 20.43 2.73Q20.43 1.33 19.41 0.59 18.4-0.15 15.95-0.38L15.95-0.38 9.05-1 10.2-1.05Q8.8-0.85 7.74-0.4 6.68 0.05 6.08 0.79 5.48 1.53 5.48 2.63L5.48 2.63 5.48 2.68Q5.48 3.95 6.35 4.73 7.23 5.5 8.83 5.83 10.43 6.15 12.63 6.15ZM13.13 9.38L12.4 9.38Q9.1 9.38 6.71 8.81 4.33 8.25 3.01 6.99 1.7 5.73 1.7 3.6L1.7 3.6 1.7 3.5Q1.7 2 2.41 1 3.13 0 4.34-0.58 5.55-1.15 7.05-1.35L7.05-1.35 7.03-1.5Q4.98-1.85 4-2.71 3.03-3.58 3.03-4.95L3.03-4.95 3.03-4.98Q3.03-5.93 3.46-6.6 3.9-7.28 4.79-7.68 5.68-8.08 7.05-8.18L7.05-8.18 7.05-8.68 11.7-7.5 9.8-7.55Q8.1-7.53 7.45-7.14 6.8-6.75 6.8-5.98L6.8-5.98 6.8-5.95Q6.8-5.13 7.73-4.7 8.65-4.28 10.88-4.03L10.88-4.03 16.8-3.43Q20.68-3.03 22.45-1.56 24.23-0.1 24.23 2.75L24.23 2.75 24.23 2.88Q24.23 5.15 22.88 6.6 21.53 8.05 19.05 8.71 16.57 9.38 13.13 9.38L13.13 9.38ZM12.75-10.3L12.75-10.3Q14.85-10.3 16.24-10.91 17.63-11.53 18.34-12.76 19.05-14 19.05-15.8L19.05-15.8 19.05-16.4Q19.05-18.15 18.36-19.38 17.68-20.6 16.3-21.24 14.93-21.88 12.85-21.88L12.85-21.88 12.7-21.88Q10.45-21.88 9.04-21.19 7.63-20.5 6.99-19.26 6.35-18.03 6.35-16.38L6.35-16.38 6.35-15.8Q6.35-14 7.06-12.78 7.78-11.55 9.2-10.93 10.63-10.3 12.75-10.3ZM47.42 0L43.4 0 43.57-5.93 43.42-6.55 43.42-14.33 43.45-15.75Q43.45-18.73 41.94-20.15 40.42-21.58 37.15-21.58L37.15-21.58Q34.52-21.58 32.34-20.83 30.15-20.08 28.45-19.07L28.45-19.07 28.82-22.53Q29.77-23.1 31.09-23.66 32.4-24.23 34.09-24.6 35.77-24.98 37.8-24.98L37.8-24.98Q40.42-24.98 42.26-24.34 44.1-23.7 45.23-22.5 46.37-21.3 46.9-19.6 47.42-17.9 47.42-15.8L47.42-15.8 47.42 0ZM35 0.53L35 0.53Q31.37 0.53 29.43-1.24 27.5-3 27.5-6.28L27.5-6.28 27.5-7Q27.5-10.38 29.59-12.04 31.67-13.7 36.22-14.35L36.22-14.35 43.95-15.45 44.17-12.5 36.72-11.43Q33.92-11.03 32.72-10.06 31.52-9.1 31.52-7.23L31.52-7.23 31.52-6.83Q31.52-4.9 32.71-3.88 33.9-2.85 36.27-2.85L36.27-2.85Q38.37-2.85 39.87-3.58 41.37-4.3 42.3-5.53 43.22-6.75 43.55-8.25L43.55-8.25 44.17-5.5 43.4-5.5Q43.05-3.9 42.09-2.53 41.12-1.15 39.4-0.31 37.67 0.53 35 0.53ZM57.2-3.35L70.87-3.35 70.87 0 52.35 0 52.35-3.05 65.92-21.08 52.4-21.08 52.4-24.4 70.77-24.4 70.77-21.38 57.2-3.35ZM86.44 0.55L86.44 0.55Q80.87 0.55 78.04-2.18 75.22-4.9 75.22-9.98L75.22-9.98 75.22-14.33Q75.22-19.48 77.84-22.26 80.47-25.05 85.52-25.05L85.52-25.05Q88.92-25.05 91.19-23.79 93.47-22.53 94.62-20.2 95.77-17.88 95.77-14.65L95.77-14.65 95.77-13.75Q95.77-12.95 95.71-12.15 95.64-11.35 95.54-10.58L95.54-10.58 91.82-10.58Q91.87-11.78 91.88-12.85 91.89-13.93 91.89-14.83L91.89-14.83Q91.89-17.05 91.18-18.59 90.47-20.13 89.06-20.94 87.64-21.75 85.52-21.75L85.52-21.75Q82.37-21.75 80.79-19.93 79.22-18.1 79.22-14.7L79.22-14.7 79.22-12.38 79.24-11.88 79.24-9.55Q79.24-8.03 79.69-6.8 80.14-5.58 81.11-4.69 82.07-3.8 83.56-3.34 85.04-2.88 87.09-2.88L87.09-2.88Q89.47-2.88 91.52-3.5 93.57-4.13 95.37-5.2L95.37-5.2 94.99-1.7Q93.37-0.68 91.22-0.06 89.07 0.55 86.44 0.55ZM94.69-10.58L77.34-10.58 77.34-13.63 94.69-13.63 94.69-10.58ZM105.02-14.93L105.02-14.93 104.09-18.05 105.09-18.1Q105.89-21.2 107.84-22.99 109.79-24.78 113.02-24.78L113.02-24.78Q113.82-24.78 114.45-24.65 115.09-24.53 115.59-24.35L115.59-24.35 115.84-20.43Q115.22-20.63 114.45-20.75 113.69-20.88 112.77-20.88L112.77-20.88Q110.02-20.88 107.98-19.35 105.94-17.82 105.02-14.93ZM105.22 0L101.17 0 101.17-24.4 105.12-24.4 104.92-17.2 105.22-16.9 105.22 0ZM129.51 0.63L129.51 0.63Q124.26 0.63 121.55-2.21 118.84-5.05 118.84-10.38L118.84-10.38 118.84-14.1Q118.84-19.4 121.56-22.23 124.29-25.05 129.51-25.05L129.51-25.05Q134.76-25.05 137.48-22.23 140.19-19.4 140.19-14.1L140.19-14.1 140.19-10.38Q140.19-5.05 137.48-2.21 134.76 0.63 129.51 0.63ZM129.51-2.68L129.51-2.68Q132.76-2.68 134.45-4.6 136.14-6.53 136.14-10.15L136.14-10.15 136.14-14.33Q136.14-17.93 134.45-19.84 132.76-21.75 129.51-21.75L129.51-21.75Q126.29-21.75 124.59-19.84 122.89-17.93 122.89-14.33L122.89-14.33 122.89-10.15Q122.89-6.53 124.59-4.6 126.29-2.68 129.51-2.68Z" opacity="1" transform="matrix(1,0,0,1,0,0)" fill="#6f605b" class="wordmark-text-0" data-fill-palette-color="primary" id="text-0"></path></svg></g></svg></g></svg></g></svg></g><g transform="matrix(1,0,0,1,116.57798504322386,0)"><svg viewBox="0 0 162.36402991355226 136.55349418050542" height="136.55349418050542" width="162.36402991355226"><g><svg xmlns="http://www.w3.org/2000/svg" xmlns:xlink="http://www.w3.org/1999/xlink" version="1.1" x="0" y="0" viewBox="20.957142857142856 36.584046372234795 58.042857142857144 48.81595362776521" style="enable-background:new 0 0 100 100;" xml:space="preserve" height="136.55349418050542" width="162.36402991355226" class="icon-icon-0" data-fill-palette-color="accent" id="icon-0"><g fill="#f36527" data-fill-palette-color="accent"><path class="" d="M56.3 85.4H36.1C31.7 85.4 27.7 83 25.7 79.1 25 78.1 24.5 76.9 24.4 75.7L21 47.5C20.8 45.6 21.3 43.7 22.5 42.2S25.4 39.7 27.3 39.5C29.6 39.2 31.9 40.1 33.4 41.7 34.7 39.6 36.9 38.3 39.4 38.3 41.5 38.3 43.5 39.1 44.9 40.6 46.1 38.1 48.8 36.4 51.7 36.6 54.2 36.7 56.4 38.1 57.6 40.1 59.1 38.5 61.3 37.6 63.6 37.9 67.6 38.3 70.4 41.9 70 45.9L69.4 51.7 76.5 58.8C78.1 60.1 79 62.1 79 64.3V64.4C79 64.7 79 65.1 78.9 65.4 78.9 65.6 78.8 65.8 78.8 66S78.7 66.3 78.7 66.4C78.5 67.3 78.1 68.1 77.5 68.8L77.3 69.1C77.2 69.3 77.1 69.4 77 69.5S76.8 69.7 76.7 69.7L64.7 81.7 64.4 82 63.6 82.8C62.2 84.2 60.5 85 58.6 85.1 57.9 85.3 57.1 85.4 56.3 85.4M28.2 42.5H27.7C26.6 42.6 25.6 43.2 24.9 44.1S23.9 46.1 24 47.2L27.4 75.3C27.5 76 27.8 76.8 28.2 77.4L28.3 77.6C29.8 80.5 32.8 82.4 36.1 82.4H56.3C56.9 82.4 57.5 82.3 58.1 82.2H58.3C59.5 82.1 60.6 81.7 61.5 80.8L62.3 80 62.6 79.7 74.7 67.6 74.9 67.4V67.3C74.9 67.2 75 67.2 75.1 67.1L75.2 67C75.5 66.6 75.7 66.1 75.9 65.6 75.9 65.5 76 65.4 76 65.3S76 65.1 76.1 65V64.2C76.1 62.9 75.5 61.8 74.6 61H74.5L66.4 52.9 67.1 45.7C67.4 43.4 65.7 41.3 63.4 41 61.2 40.8 59.1 42.3 58.8 44.5L58.6 45.8 57 45.7 55.6 45.5 55.7 44.1C55.8 41.7 54 39.8 51.7 39.7S47.4 41.4 47.3 43.7L47.2 45.7H44L43.7 44.6C43.2 42.7 41.5 41.4 39.6 41.4H39.5C37.5 41.4 35.8 42.8 35.4 44.8L35.2 45.8 34.2 46C34.1 46 34 46 33.9 46.1L32.5 46.5 32 45.3C31.4 43.5 29.9 42.5 28.2 42.5" fill="#f36527" data-fill-palette-color="accent"></path></g></svg></g></svg></g><g></g></svg></g><defs></defs></svg><rect width="377.9548228802571" height="247.2" fill="none" stroke="none" visibility="hidden"></rect></g></svg></g></svg>